<svg xmlns="http://www.w3.org/2000/svg" viewBox="0 0 70 70"><defs><style>.cls-1{fill:#f1f1f2;}.cls-2{fill:#192538;}.cls-3{fill:#fff;}.cls-4{fill:#cb002c;}</style></defs><g id="content"><path class="cls-1" d="M59.05,41.25a6.7,6.7,0,0,0,4.71-6.39V21.5A11.36,11.36,0,0,0,58.58,0h-9A30.32,30.32,0,0,0,36.26,3.11h-6c-.52,0-.57,0-3,1.26L23.14,6.42A2.06,2.06,0,0,0,22,8.26V9.32H13.06a2.05,2.05,0,1,0,0,4.1H22v1.05a2,2,0,0,0,1.15,1.84L27,18.25c2.6,1.31,2.7,1.36,3.31,1.38h6A30.3,30.3,0,0,0,44,22.22v1.57a5.17,5.17,0,0,0,5.18,5.15h1.06v5.92A6.72,6.72,0,0,0,55,41.27a7.09,7.09,0,0,0,7,6.73h8V44H61.82A3.13,3.13,0,0,1,59.05,41.25ZM54.4,22.74h4.18c.35,0,.7,0,1.06,0V34.86a2.62,2.62,0,0,1-5.24,0ZM38.8,6.45A26.38,26.38,0,0,1,49.61,4.11h9a7.26,7.26,0,1,1,0,14.52h-9A26.38,26.38,0,0,1,38.8,16.29Zm8.86,15.72c.65,0,1.29.07,2,.07h1.17v3.09H49.22a1.55,1.55,0,0,1-1.56-1.54Zm-13-15v8.32H32l-5.83-2.35V9.56L32,7.21Z"/><path class="cls-1" d="M53,13H59a2,2,0,0,0,0-4H53a2,2,0,0,0,0,4Z"/><path class="cls-2" d="M54.53,20,50,15.47a1.62,1.62,0,0,0-2-.24L36.61,22.07a1.61,1.61,0,0,0-.31,2.52l1.14,1.14L19.55,43.63l-2.28-2.28L2.36,56.24a8.06,8.06,0,0,0,11.4,11.4l14.9-14.9-2.28-2.27L44.27,32.56l1.14,1.14a1.61,1.61,0,0,0,2.52-.31L54.77,22A1.62,1.62,0,0,0,54.53,20Z"/><path class="cls-3" d="M23.67,47.77l1.92,1.92L10.69,64.58a4,4,0,0,1-5.5,0,3.86,3.86,0,0,1,.11-5.31l14.9-15,2,2L40.12,28.38l1.44,1.47Z"/><polygon class="cls-3" points="46.18 29.38 40.63 23.82 48.29 19.22 50.78 21.72 46.18 29.38"/><path class="cls-2" d="M10.34,61.29a1.75,1.75,0,0,1-1.23-3l7.64-7.64a1.75,1.75,0,0,1,2.47,2.48l-7.64,7.64A1.75,1.75,0,0,1,10.34,61.29Z"/><path class="cls-4" d="M12.93,15a13,13,0,0,0-6.16,1.55,1.67,1.67,0,0,0-.84,1.19,1.63,1.63,0,0,0,.46,1.38l6.05,6a1.61,1.61,0,0,1,0,2.28,1.62,1.62,0,0,1-2.28,0l-6-6.05A1.68,1.68,0,0,0,3,20.92H2.74a1.63,1.63,0,0,0-1.18.83,12.85,12.85,0,0,0,11.29,19,13.17,13.17,0,0,0,3.35-.44L29.69,53.8A12.89,12.89,0,0,0,33,66.26a12.73,12.73,0,0,0,9,3.74,13,13,0,0,0,6.16-1.55,1.67,1.67,0,0,0,.84-1.19,1.63,1.63,0,0,0-.46-1.38l-6-6a1.61,1.61,0,0,1,0-2.28,1.62,1.62,0,0,1,2.28,0l6,6a1.65,1.65,0,0,0,1.15.47h.23a1.67,1.67,0,0,0,1.19-.84,12.85,12.85,0,0,0-11.31-19,13.09,13.09,0,0,0-3.34.44l-.64-.64-2.68-2.7L25.31,31.19A12.88,12.88,0,0,0,22,18.74a12.73,12.73,0,0,0-9-3.74Z"/><path class="cls-3" d="M51.15,58.62l-3.68-3.69a5.33,5.33,0,0,0-7.54,7.54l3.68,3.68a9,9,0,0,1-8-2.52,9.23,9.23,0,0,1-2.15-9.57,2.11,2.11,0,0,0-.5-2.2L18.14,37a2.14,2.14,0,0,0-1.5-.62,2.1,2.1,0,0,0-.7.12,9.08,9.08,0,0,1-3.06.53,9.3,9.3,0,0,1-6.51-2.68,9,9,0,0,1-2.52-8l3.68,3.69a5.33,5.33,0,0,0,7.54-7.54l-3.69-3.68A9.16,9.16,0,0,1,13,18.71a9,9,0,0,1,6.39,2.66,9.21,9.21,0,0,1,2.15,9.57,2.13,2.13,0,0,0,.5,2.21L36.85,48a2.12,2.12,0,0,0,1.5.62,2.16,2.16,0,0,0,.71-.12A9.08,9.08,0,0,1,42.12,48a9.3,9.3,0,0,1,6.51,2.68A9,9,0,0,1,51.15,58.62Z"/></g></svg>