<svg xmlns="http://www.w3.org/2000/svg" viewBox="0 0 70 70"><defs><style>.cls-1{fill:#ededed;}.cls-2{fill:#fff;}.cls-3{fill:#192538;}.cls-4{fill:#cb002c;}</style></defs><g id="content"><path class="cls-1" d="M52.5,0A17.5,17.5,0,1,0,70,17.5,17.51,17.51,0,0,0,52.5,0Zm3,12.67H59l-1.14,1.75H55.62c-.38,2.91-3.13,4.59-6.11,4.74l7.18,8.94H53.56l-6.88-8.63V17.79h1.76c3.51,0,4.58-2,4.58-3.29v-.08h-7l1.15-1.75h5.57c-.76-1.76-2.67-1.91-4.73-1.91h-2L47.22,9H59l-1.14,1.76H54.7A3.52,3.52,0,0,1,55.54,12.67Z"/><circle class="cls-2" cx="27" cy="43" r="23"/><path class="cls-3" d="M27,20A23,23,0,1,1,4,43,23,23,0,0,1,27,20m0-4A27,27,0,1,0,54,43,27,27,0,0,0,27,16Z"/><path class="cls-4" d="M29.58,32.59V28H26.79v4.45c-.74,0-1.49,0-2.22,0V28H21.79v4.57l-1.77,0v0H16.16v3s2,0,2,0a1.43,1.43,0,0,1,1.6,1.22V49.33a1,1,0,0,1-1.06.92c.05,0-2,0-2,0l-.55,3.31h5.62v4.64h2.79V53.66H26.8v4.57h2.79V53.61c4.67-.26,8-1.45,8.37-5.85.32-3.55-1.34-5.12-4-5.77a4.28,4.28,0,0,0,2.39-4.69C36,34,33.18,32.9,29.58,32.59Z"/><path class="cls-2" d="M32.45,47.21c0,3.47-5.93,3.06-7.83,3.07V44.15C26.52,44.14,32.44,43.6,32.45,47.21Z"/><path class="cls-2" d="M24.63,35.77v5.57c1.57,0,6.52.36,6.52-2.78S26.2,35.77,24.63,35.77Z"/></g></svg>