<svg xmlns="http://www.w3.org/2000/svg" viewBox="0 0 70 70"><defs><style>.cls-1{fill:#f1f1f2;}.cls-2{fill:#192538;}.cls-3{fill:#fff;}.cls-4{fill:#cb002c;}</style></defs><g id="content"><path class="cls-1" d="M37.91,16.2H36.75c1.36-4.31-2.62-6.77-2.62-6.77C34,3.91,30.75,3,28.62,3a7.31,7.31,0,0,0-1.82.22A9.25,9.25,0,0,0,20,0a7.72,7.72,0,0,0-5.89,3.11,10.93,10.93,0,0,0-2-.2c-6,0-5.41,6.36-5.41,6.36-4.45.43-5.2,4.07-4.38,6.93H1.09A1.08,1.08,0,0,0,0,17.41L4.28,53.05a1.08,1.08,0,0,0,1.08,1H33.64a1.08,1.08,0,0,0,1.08-1L39,17.41A1.08,1.08,0,0,0,37.91,16.2ZM9.59,11.89l.51-.05L10,11.28A5.37,5.37,0,0,1,11,7.88a3.4,3.4,0,0,1,2.74-1.12,7.35,7.35,0,0,1,1.49.16L15.5,7l.2-.25a6.38,6.38,0,0,1,4.48-2.41q2.37,0,4.62,2.53l.2.23L25.31,7a5.26,5.26,0,0,1,1.28-.16c2.4,0,3.67,1.56,3.75,4.63v.31l.25.16a4.75,4.75,0,0,1,2,3,3.53,3.53,0,0,1-.05,1.21h-26A4.88,4.88,0,0,1,6.41,15,3.16,3.16,0,0,1,9.59,11.89Zm14.28,8.63V27l-.4-.19c-.2-.09-.38-.18-.56-.25s-.19-.08-.28-.12a.67.67,0,0,1-.15-.06l-.37-.13c-.25-.07-.48-.14-.7-.18L21.06,26a3,3,0,0,0-.42-.05c-.35,0-.72,0-1.14,0-.24,0-.47,0-.68,0a3.64,3.64,0,0,0-.48,0,2.57,2.57,0,0,0-.4.06,0,0,0,0,0,0,0l-.33,0-.3.07-.44.12a2.16,2.16,0,0,0-.41.13l-.08,0a5,5,0,0,0-.55.23l-.14.06-.52.27V20.52ZM8.59,49.68l-.11-1-3-27.12-.12-1.08H9.68l.08,1,2.1,28.18Zm13.89-5.55-.67,4.62-.13.93H17.32l-.13-.93-.67-4.62-.29-2,.49.27.43.23c.14.07.27.14.4.19A2,2,0,0,0,18,43a2.38,2.38,0,0,0,.38.11l.3.06.27,0h1.2l.27,0,.3-.06a2.38,2.38,0,0,0,.38-.11,2,2,0,0,0,.4-.16c.13-.05.26-.12.4-.19l.43-.23.49-.27Zm-2.93-5.25a4.54,4.54,0,1,1,4.54-4.54A4.54,4.54,0,0,1,19.55,38.88Zm14-17.29-3,27.13-.11,1H27.14l2.1-28.18v0l.08-.95h4.36Z"/><path class="cls-2" d="M52.61,28H3.39A3.49,3.49,0,0,0,0,31.57V66.43A3.49,3.49,0,0,0,3.39,70H52.61A3.49,3.49,0,0,0,56,66.43V31.57A3.49,3.49,0,0,0,52.61,28Z"/><rect class="cls-3" x="4" y="32" width="48" height="34" rx="1"/><path class="cls-4" d="M33.51,44.68l-8-4.55A1,1,0,0,0,24,41V50a1,1,0,0,0,1.5.83l8-4.55A.93.93,0,0,0,33.51,44.68Z"/><path class="cls-2" d="M47,61H10a1,1,0,0,1,0-2H47a1,1,0,0,1,0,2Z"/><path class="cls-4" d="M19,62H10a2,2,0,0,1,0-4h9a2,2,0,0,1,0,4Z"/><circle class="cls-2" cx="56" cy="34" r="14"/><path class="cls-3" d="M49,32a25.07,25.07,0,0,1,1.48-6.58A10.19,10.19,0,0,0,46,32Z"/><path class="cls-3" d="M66,32a10.17,10.17,0,0,0-4.44-6.58A25.1,25.1,0,0,1,63,32Z"/><path class="cls-3" d="M59,32a18.65,18.65,0,0,0-1.27-5.72C57,24.56,56.21,24,56,24s-1,.56-1.7,2.28A18.65,18.65,0,0,0,53.05,32Z"/><path class="cls-3" d="M63,36a25.19,25.19,0,0,1-1.44,6.58A10.23,10.23,0,0,0,66,36Z"/><path class="cls-3" d="M46,36a10.2,10.2,0,0,0,4.47,6.58A25.16,25.16,0,0,1,49,36Z"/><path class="cls-3" d="M53.05,36a18.72,18.72,0,0,0,1.27,5.73C55.06,43.44,55.84,44,56,44s1-.56,1.71-2.27A18.72,18.72,0,0,0,59,36Z"/></g></svg>