<svg xmlns="http://www.w3.org/2000/svg" xmlns:xlink="http://www.w3.org/1999/xlink" viewBox="0 0 70 70"><defs><style>.cls-1{fill:none;}.cls-2{fill:#f1f1f2;}.cls-3{fill:#cb002c;}.cls-4{fill:#192538;}.cls-5{fill:#fff;}.cls-6{clip-path:url(#clip-path);}</style><clipPath id="clip-path"><path class="cls-1" d="M60.65,29.85A17.75,17.75,0,0,1,60.12,32q-.1.36-.24.72a.31.31,0,0,1-.05.12c-.07.22-.15.45-.24.66l-.09.22,0,0A20.51,20.51,0,0,1,57.77,37l0,0c-.22.36-.47.74-.73,1.09a17,17,0,0,1-1,1.37c-.27.32-.55.65-.85,1s-.46.5-.71.75h0c-.27.27-.55.54-.83.79s-.51.46-.78.68l-.08.07a10.74,10.74,0,0,1-.85.66,8.4,8.4,0,0,1-.79.58l-.36.24c-.17.13-.35.23-.51.34h0l-.82.49-.62.34c-.38.2-.76.39-1.14.56l-.74.32h0l-.43.17-.28.11-.57.19a3.7,3.7,0,0,1-.4.13c-.28.1-.55.18-.83.25s-.65.16-1,.23l-.66.12a3.89,3.89,0,0,1-.47.09l-.17,0c-.26,0-.53.08-.79.1s-.55,0-.82.06-.61,0-.91,0h-.26c-.49,0-1,0-1.46-.07h0l-.21,0a5,5,0,0,1-.56-.08,2.57,2.57,0,0,1-.4-.06L36,47.38c-.21,0-.43-.1-.64-.16l-.07,0a13.11,13.11,0,0,1-1.46-.48h0a13.36,13.36,0,0,1-7.54-7.54h0v0l0,0a15.4,15.4,0,0,1-1-4.07l0,0c0-.14,0-.28,0-.43l0-.48a17.77,17.77,0,0,1,.2-3.48c0-.15,0-.29.07-.44s.08-.45.13-.68c.09-.41.19-.82.31-1.23.05-.19.1-.36.16-.54l.24-.73,0-.07c.09-.24.17-.47.27-.72,0-.05,0-.11.07-.17s.6-1.33.83-1.76.88-1.57.88-1.57c.11-.19.23-.37.35-.56l.29-.42.09-.13c.34-.48.71-1,1.1-1.44.25-.3.51-.59.77-.88s.49-.52.75-.78h0l.84-.81.65-.56.25-.21a6.9,6.9,0,0,1,.68-.53,2,2,0,0,1,.28-.21,6.37,6.37,0,0,1,.62-.44,3,3,0,0,1,.37-.25,5.25,5.25,0,0,1,.49-.33h0a21,21,0,0,1,3.33-1.71h0l.16-.07.68-.25.14,0c.26-.1.52-.18.78-.26s.52-.16.77-.22.64-.17,1-.24l.64-.12a18.34,18.34,0,0,1,4-.28l.49,0,.42,0h0l.17,0a5.17,5.17,0,0,1,.55.07,3.58,3.58,0,0,1,.49.08,5.42,5.42,0,0,1,.7.14l.51.12a3.66,3.66,0,0,1,.44.13l.41.12c.26.08.52.18.77.28h0a13.55,13.55,0,0,1,1.76.85,6,6,0,0,1,.6.37A12.81,12.81,0,0,1,57,16a13.3,13.3,0,0,1,2.41,3.31c.21.41.39.82.56,1.24h0a.85.85,0,0,1,.06.17c.08.21.16.44.23.65a1.58,1.58,0,0,1,.11.37,6.57,6.57,0,0,1,.21.76.14.14,0,0,1,0,.07c.07.28.13.57.18.86a0,0,0,0,1,0,0c0,.09,0,.18,0,.29a5.18,5.18,0,0,1,.11.87,8.09,8.09,0,0,1,.07.86A17.48,17.48,0,0,1,60.8,29,6.61,6.61,0,0,1,60.65,29.85Z"/></clipPath></defs><g id="content"><path class="cls-2" d="M25.5,0A25.5,25.5,0,1,0,51,25.5,25.53,25.53,0,0,0,25.5,0ZM47.07,25.5a22.74,22.74,0,0,1-.17,2.73l-6.34,3.06-6.08-3.22-1-7.73,4.75-4.76,7,1.08A21.5,21.5,0,0,1,47.07,25.5Zm-33.51-18A20.82,20.82,0,0,1,18.62,5L17,8.1Zm11,23.71-4.89-4.77,3.21-6.37,6.78,1.28.92,6.82Zm6.17-13.66L23,16.1l-2.83-5.73L23.63,4a21.77,21.77,0,0,1,10.71,1.8l1.08,7Zm-14-5.5,2.88,5.83L15.94,25l-6.46.94-5.05-5.2a21.42,21.42,0,0,1,5.25-10Zm-6.6,17.79,6.46-.94,5.54,5.4-1.13,6.53L14.37,44a21.55,21.55,0,0,1-7.68-7.87Zm28.66,4.93,1,7a21.32,21.32,0,0,1-10.12,4.93l-4.84-5.06,1.15-6.74,6.67-3.36ZM22.18,44.58l2.35,2.47a22,22,0,0,1-5.48-.94Zm17-32.81L38.72,8.4a22.26,22.26,0,0,1,3.88,3.88ZM6.37,28.38,4.73,31.46a21.76,21.76,0,0,1-.83-5.62Zm39.32,4.8A21.45,21.45,0,0,1,43.16,38l-.49-3.32Z"/><path class="cls-3" d="M32.12,45.93h0Zm2.3-33.68h0Z"/><path class="cls-3" d="M60,50a10,10,0,0,0-9.25,13.79.36.36,0,0,0,0,.09,10,10,0,0,0,18.42,0,.36.36,0,0,0,0-.09A10,10,0,0,0,60,50Zm0,16.49a6.49,6.49,0,0,1-5.55-3.12,7.39,7.39,0,0,1,11.1,0A6.49,6.49,0,0,1,60,66.49Zm0-9.13a10.82,10.82,0,0,0-6.47,2.13,6.49,6.49,0,0,1,12.94,0A10.82,10.82,0,0,0,60,57.36Z"/><path class="cls-4" d="M59.81,13.19C51.5,4.89,37.62,7.13,29,15.76a25.37,25.37,0,0,0-7.75,18c0,6.53-3,13.27-8.22,18.5L4.6,60.7a5.44,5.44,0,1,0,7.7,7.7L20.72,60a26.74,26.74,0,0,1,18.74-8.22A25.47,25.47,0,0,0,57.24,44C66,35.28,68,21.42,59.81,13.19Z"/><path class="cls-5" d="M60.65,29.85A18.77,18.77,0,0,1,60.12,32c-.08.24-.15.48-.25.72a.19.19,0,0,1,0,.12c-.08.22-.15.45-.25.66a1.43,1.43,0,0,1-.08.22l0,0A21.35,21.35,0,0,1,57.77,37h0c-.22.37-.47.74-.73,1.1s-.67.92-1,1.36-.55.66-.85,1-.47.5-.71.74h0c-.27.28-.55.55-.83.8s-.52.46-.79.68a.45.45,0,0,1-.07.07,10.74,10.74,0,0,1-.85.66c-.26.21-.53.4-.8.58l-.35.23a5.26,5.26,0,0,1-.52.35h0l-.81.49c-.2.11-.42.23-.63.33a10,10,0,0,1-1.14.56c-.24.12-.48.22-.73.32h0l-.43.17-.28.1a5.49,5.49,0,0,1-.57.2l-.39.13a8.64,8.64,0,0,1-.83.24c-.33.1-.66.17-1,.24l-.66.12a4.2,4.2,0,0,1-.47.08l-.17,0a7.35,7.35,0,0,1-.79.09l-.82.07c-.3,0-.61,0-.91,0h-.26a14,14,0,0,1-1.46-.08h0l-.21,0a5,5,0,0,1-.56-.08c-.14,0-.27,0-.41-.06l-.7-.14c-.21,0-.43-.1-.64-.16l-.07,0a13.11,13.11,0,0,1-1.46-.48h0a13.38,13.38,0,0,1-7.53-7.54h0v0l0,0a15,15,0,0,1-1-4.07l0,0c0-.14,0-.28,0-.43l0-.49a17.81,17.81,0,0,1,.2-3.48,3.49,3.49,0,0,1,.07-.43c0-.23.08-.45.13-.68.09-.41.19-.82.31-1.23.05-.19.1-.37.16-.54s.16-.49.24-.73l0-.07q.12-.36.27-.72a1.22,1.22,0,0,1,.07-.17s.6-1.33.82-1.77.89-1.57.89-1.57l.35-.55.28-.42.1-.13c.34-.49.71-1,1.1-1.44.24-.3.51-.59.77-.88s.48-.52.75-.78h0c.27-.27.55-.55.84-.81l.65-.56.24-.21c.23-.19.45-.37.69-.54a1.55,1.55,0,0,1,.28-.2c.2-.16.41-.31.61-.44a2.75,2.75,0,0,1,.38-.25,4.58,4.58,0,0,1,.48-.33h0a21.32,21.32,0,0,1,3.32-1.71h0l.16-.07c.23-.08.45-.18.68-.25l.14,0c.26-.1.52-.18.78-.26s.52-.16.77-.22.64-.17,1-.24l.64-.12a17.69,17.69,0,0,1,4-.28l.49,0,.42,0h.2a5.21,5.21,0,0,1,.55.08l.49.07.69.14.52.13a2.44,2.44,0,0,1,.44.13,3.17,3.17,0,0,1,.41.12c.26.08.51.18.77.28h0a0,0,0,0,0,0,0,13.07,13.07,0,0,1,1.77.85c.21.11.4.23.6.36A13.79,13.79,0,0,1,57,16a13.12,13.12,0,0,1,2.41,3.31c.2.4.39.81.56,1.24h0a1,1,0,0,1,.06.16l.23.66a2.47,2.47,0,0,1,.11.36,7.34,7.34,0,0,1,.21.77.14.14,0,0,1,0,.07,8.17,8.17,0,0,1,.17.86s0,0,0,0a2.93,2.93,0,0,1,0,.29,6.47,6.47,0,0,1,.11.87,8.09,8.09,0,0,1,.07.86A18.23,18.23,0,0,1,60.8,29C60.76,29.25,60.72,29.55,60.65,29.85Z"/><path class="cls-5" d="M9.74,65.83a1.82,1.82,0,1,1-2.57-2.57l7.7-7.69,2.56,2.56Z"/><path class="cls-5" d="M20.08,55.63l-2.71-2.7A33,33,0,0,0,19.6,50L23,53.4A32.69,32.69,0,0,0,20.08,55.63Z"/><path class="cls-5" d="M26.44,50.92l-4.36-4.36a26.69,26.69,0,0,0,1.75-4.06,16.28,16.28,0,0,0,2.84,3.83,16.07,16.07,0,0,0,3.83,2.84A27.13,27.13,0,0,0,26.44,50.92Z"/><g class="cls-6"><path class="cls-3" d="M56.71,29.1l4.56-4.56a15.33,15.33,0,0,0-1-4.15l-6.92,6.92-7.7-7.7,6.89-6.91a15.22,15.22,0,0,0-4.16-1L43.1,17l-3.88-3.87a21.48,21.48,0,0,0-3.4,1.75l4.71,4.7-7.7,7.7-4.7-4.7A21.91,21.91,0,0,0,26.38,26l3.87,3.87-5.31,5.31a15.43,15.43,0,0,0,1,4.15l6.91-6.89,7.7,7.7-6.9,6.9a14.81,14.81,0,0,0,4.15,1l5.32-5.32L47,46.59a22.21,22.21,0,0,0,3.4-1.73l-4.7-4.71,7.7-7.7,4.7,4.7a23.15,23.15,0,0,0,1.73-3.4l-3.86-3.87ZM43.1,37.58l-7.71-7.7,7.71-7.7,7.7,7.7Z"/></g></g></svg>