<svg xmlns="http://www.w3.org/2000/svg" viewBox="0 0 70 70"><defs><style>.cls-1{fill:#f1f1f2;}.cls-2{fill:#cb002c;}.cls-3{fill:#192538;}.cls-4{fill:#fff;}</style></defs><g id="content"><path class="cls-1" d="M54.44,57.7h7.91v4.1H54.44Z"/><path class="cls-1" d="M54.44,49.49h7.91v4.1H54.44Z"/><path class="cls-1" d="M60.31,9.4V1a1,1,0,0,0-1-1H30.69a1,1,0,0,0-1,1V9.4L20.27,19.51a1,1,0,0,0-.27.68V70H70V20.19a1,1,0,0,0-.27-.68ZM46.79,26.89c-6.26.64-9.74,4.36-12.84,7.69C31,37.7,28.47,40.45,23.83,41V22.7h23Zm16.68-8.3H53.32l5.07-5.44Zm-7-14.49V8.2h-23V4.1ZM32.4,12.3H53.77l-5.86,6.29H26.53ZM23.83,45.16c6.25-.64,9.73-4.36,12.83-7.68,2.91-3.13,5.48-5.87,10.13-6.46V65.9h-23ZM50.61,65.9V22.7H66.17V65.9Z"/><path class="cls-2" d="M36.2,34.77h0l-.48-.51Z"/><path class="cls-3" d="M66.08,43.34l-.1-.06c-5.8-3.35-15.51,4.06-18.56,9.34a11.65,11.65,0,0,0-1.26,8.75,11.18,11.18,0,0,0,5.33,7l.1.06a11.2,11.2,0,0,0,8.74,1.11,11.7,11.7,0,0,0,6.94-5.47C70.32,58.8,71.89,46.69,66.08,43.34Z"/><path class="cls-4" d="M53.55,64.93A7.42,7.42,0,0,1,51,54.65a21.1,21.1,0,0,1,6.74-6.43c3.21-1.93,5.42-2,6.33-1.47s2,2.47,1.88,6.21a20.92,20.92,0,0,1-2.2,9A7.4,7.4,0,0,1,53.55,64.93Z"/><path class="cls-3" d="M48.47,41h-.12C41.68,41,37,52.27,37,58.38a11.67,11.67,0,0,0,3.27,8.21A11.13,11.13,0,0,0,48.35,70h.12a11.13,11.13,0,0,0,8.08-3.41,11.67,11.67,0,0,0,3.27-8.21C59.82,52.27,55.14,41,48.47,41Z"/><path class="cls-4" d="M48.41,66a7.4,7.4,0,0,1-7.33-7.62,21.15,21.15,0,0,1,2.61-9c1.8-3.28,3.67-4.44,4.72-4.44s2.92,1.16,4.72,4.44a21.15,21.15,0,0,1,2.61,9A7.4,7.4,0,0,1,48.41,66Z"/><path class="cls-3" d="M52,28.5a5.63,5.63,0,0,1-8.53,4.78l-4.9,4.89s-5.44-6.05-6.78-6.77l4.89-4.89a5.61,5.61,0,1,1,10.37-3.57A5.61,5.61,0,0,1,52,28.5Z"/><path class="cls-4" d="M48,28.5a1.55,1.55,0,0,1-1.56,1.55,1.54,1.54,0,0,1-1.16-.51,2.55,2.55,0,0,0-3.66-.09L36.2,34.77h0l-.48-.51-.57-.54,5.38-5.32a2.51,2.51,0,0,0-.09-3.65,1.6,1.6,0,0,1-.51-1.16,1.56,1.56,0,0,1,1.57-1.55h0A1.58,1.58,0,0,1,43,23.94a2.43,2.43,0,0,0,.46,2.12,2.53,2.53,0,0,0,2,1A2.25,2.25,0,0,0,46,27a1.32,1.32,0,0,1,.34,0,1.57,1.57,0,0,1,1.12.48A1.53,1.53,0,0,1,48,28.5Z"/><path class="cls-2" d="M31.79,31.4a9.72,9.72,0,0,0-10.32,3.51,6.77,6.77,0,0,1-5.36,2.68c-21.48.82-21.49,31.6,0,32.41A16.23,16.23,0,0,0,32.37,53.81a6.74,6.74,0,0,1,2.69-5.34,9.68,9.68,0,0,0,3.51-10.3A15.42,15.42,0,0,0,31.79,31.4Z"/><path class="cls-4" d="M32.62,45.24a10.82,10.82,0,0,0-4.3,8.54c-.32,8.3-6.54,12.09-12.18,12.09S4.26,62.08,4,53.79A12.17,12.17,0,0,1,16.11,41.63a10.9,10.9,0,0,0,8.6-4.29,5.62,5.62,0,0,1,4.51-2.24,5.65,5.65,0,0,1,3.4,10.14Z"/></g></svg>