<svg xmlns="http://www.w3.org/2000/svg" viewBox="0 0 70 70"><defs><style>.cls-1{fill:#f1f1f2;}.cls-2{fill:#cb002c;}.cls-3{fill:#192538;}.cls-4{fill:#fff;}</style></defs><g id="content"><path class="cls-1" d="M69.12,45l-2.38-4.48q-5.8-11-11.59-21.92a2.73,2.73,0,0,1-.3-1.4q.42-6.48.87-12.95l.13-1.87A2,2,0,0,0,54.14.3c-10.84-1.62-20.3,3.4-25,13.26a2,2,0,0,0,.8,2.59l1.7,1q5.52,3.21,11,6.47a3.05,3.05,0,0,1,1.08,1.12q5.49,10.31,11,20.64l2.9,5.48a8.45,8.45,0,0,0,.46.82,6.09,6.09,0,0,0,5,3A9.23,9.23,0,0,0,65,54.5l.86-.14,1.37-.72c.18-.2.37-.38.55-.56a7.65,7.65,0,0,0,1.11-1.27A6.34,6.34,0,0,0,69.12,45ZM52.06,4.38c0,.14,0,.28,0,.42l-.21,3-.6,8.59a1.28,1.28,0,0,1-.73,1.2h0c-1.7.87-3.37,1.78-5.07,2.66a1.28,1.28,0,0,1-1.13,0q-4.78-2.76-9.53-5.56l-1-.61a1,1,0,0,1-.2-.16l-.26-.27.15-.36C37.3,6.65,43.75,3.23,51.61,3.71l.47,0Z"/><path class="cls-2" d="M54,16h0A10,10,0,0,1,64,26V38a0,0,0,0,1,0,0H53a0,0,0,0,1,0,0V17a1,1,0,0,1,1-1Z"/><path class="cls-3" d="M45,58H34.44a21.5,21.5,0,1,0-21.88,0H2a2,2,0,0,0-2,2v2a8,8,0,0,0,8,8H39a8,8,0,0,0,8-8V60A2,2,0,0,0,45,58Z"/><circle class="cls-4" cx="23.49" cy="39.5" r="17.5"/><path class="cls-4" d="M39,66H8a4,4,0,0,1-4-4H43A4,4,0,0,1,39,66Z"/><path class="cls-3" d="M23.5,30A9.5,9.5,0,1,1,14,39.5,9.51,9.51,0,0,1,23.5,30Zm0-4A13.5,13.5,0,1,0,37,39.5,13.49,13.49,0,0,0,23.5,26Z"/><path class="cls-3" d="M63,37H54a3,3,0,0,0-3,3V67a3,3,0,0,0,3,3h9a3,3,0,0,0,3-3V40a3,3,0,0,0-3-3Z"/><rect class="cls-4" x="55" y="41" width="7" height="25" rx="1"/></g></svg>